<svg xmlns="http://www.w3.org/2000/svg" xmlns:xlink="http://www.w3.org/1999/xlink" viewBox="0 0 442.19 334.43"><defs><style>.cls-1{fill:none;}.cls-2{fill:url(#linear-gradient);}.cls-3{fill:url(#linear-gradient-2);}.cls-4{fill:#f46d6d;}.cls-5{fill:url(#linear-gradient-3);}.cls-6{fill:url(#linear-gradient-4);}.cls-7{fill:url(#linear-gradient-5);}.cls-8{fill:url(#linear-gradient-6);}.cls-9{fill:url(#linear-gradient-7);}.cls-10{fill:#e0e7ee;}.cls-11{fill:#fff;}.cls-12{clip-path:url(#clip-path);}.cls-13,.cls-22,.cls-23{fill:#3167eb;}.cls-14{fill:#f9a101;}.cls-15{fill:url(#linear-gradient-8);}.cls-16{fill:url(#linear-gradient-9);}.cls-17{fill:#fab9b5;}.cls-18{fill:url(#linear-gradient-10);}.cls-19{fill:url(#linear-gradient-11);}.cls-20{fill:#f7adab;}.cls-21{fill:#323bb4;}.cls-22{font-size:33.56px;font-family:Poppins-Medium, Poppins;font-weight:500;}.cls-23{font-size:16.04px;font-family:Poppins-Regular, Poppins;}.cls-24{fill:url(#linear-gradient-12);}.cls-25{fill:url(#linear-gradient-13);}.cls-26{fill:url(#linear-gradient-14);}.cls-27{fill:url(#linear-gradient-15);}</style><linearGradient id="linear-gradient" x1="227.44" y1="281.64" x2="227.44" y2="-28.49" gradientUnits="userSpaceOnUse"><stop offset="0" stop-color="#d6e1f4"/><stop offset="0.34" stop-color="#e1e8f3"/><stop offset="1" stop-color="#f2f2f2"/></linearGradient><linearGradient id="linear-gradient-2" x1="293.06" y1="89.21" x2="381.54" y2="89.21" gradientUnits="userSpaceOnUse"><stop offset="0" stop-color="#ffae2a"/><stop offset="0.38" stop-color="#ffcc16"/><stop offset="0.76" stop-color="#ffe306"/><stop offset="1" stop-color="#ffec00"/></linearGradient><linearGradient id="linear-gradient-3" x1="287.93" y1="157.35" x2="416.3" y2="157.35" gradientUnits="userSpaceOnUse"><stop offset="0" stop-color="#008da2"/><stop offset="0.41" stop-color="#1babc0"/><stop offset="1" stop-color="#47dcf2"/></linearGradient><linearGradient id="linear-gradient-4" x1="143.61" y1="123.1" x2="82.94" y2="13.77" xlink:href="#linear-gradient-2"/><linearGradient id="linear-gradient-5" x1="38.95" y1="148.77" x2="167.32" y2="148.77" xlink:href="#linear-gradient-3"/><linearGradient id="linear-gradient-6" x1="160.1" y1="274.95" x2="258.6" y2="150.95" gradientUnits="userSpaceOnUse"><stop offset="0" stop-color="#574dff"/><stop offset="0.18" stop-color="#6a6dff"/><stop offset="0.42" stop-color="#8093ff"/><stop offset="0.65" stop-color="#90afff"/><stop offset="0.85" stop-color="#9abfff"/><stop offset="1" stop-color="#9dc5ff"/></linearGradient><linearGradient id="linear-gradient-7" x1="220.78" y1="199.16" x2="350.28" y2="17.16" gradientUnits="userSpaceOnUse"><stop offset="0" stop-color="#3167eb"/><stop offset="0.12" stop-color="#4579ef"/><stop offset="0.38" stop-color="#6b9af6"/><stop offset="0.63" stop-color="#87b1fb"/><stop offset="0.84" stop-color="#97c0fe"/><stop offset="1" stop-color="#9dc5ff"/></linearGradient><clipPath id="clip-path"><path class="cls-1" d="M289.54,192c-2.87,12.14-7,23.79-18.43,32-.94.68-1.91,1.35-2.92,2-.59.38-1.17.74-1.78,1.09-.19.13-.38.23-.58.35-1.12.65-2.25,1.27-3.43,1.85-.88.45-1.78.88-2.7,1.28-1.34.62-2.72,1.19-4.13,1.73a69.07,69.07,0,0,1-6.74,2.22c-.23.08-.47.14-.7.2a76.47,76.47,0,0,1-8,1.74c-2.08.36-4.21.64-6.36.85-1.4.13-2.81.24-4.23.29l-.59,0c-1.25.07-2.51.09-3.78.09h-.76c-35.17-.29-62.15-20.7-63.57-45.76-3.16-55.77,34.39-95.89,69.91-95.89S303.11,134.51,289.54,192Z"/></clipPath><linearGradient id="linear-gradient-8" x1="238.74" y1="273.64" x2="238.74" y2="189.19" gradientUnits="userSpaceOnUse"><stop offset="0" stop-color="#ff2c6e"/><stop offset="0.15" stop-color="#f7296b"/><stop offset="0.37" stop-color="#e22261"/><stop offset="0.63" stop-color="#c01552"/><stop offset="0.94" stop-color="#90043d"/><stop offset="1" stop-color="#850038"/></linearGradient><linearGradient id="linear-gradient-9" x1="257.86" y1="190.97" x2="257.86" y2="120.29" xlink:href="#linear-gradient-2"/><linearGradient id="linear-gradient-10" x1="207.66" y1="190.97" x2="207.66" y2="120.29" xlink:href="#linear-gradient-2"/><linearGradient id="linear-gradient-11" x1="230.79" y1="190.97" x2="230.79" y2="120.29" xlink:href="#linear-gradient-2"/><linearGradient id="linear-gradient-12" x1="343.47" y1="281.47" x2="428.47" y2="158.96" gradientTransform="translate(-18.63 33.31) rotate(-4.98)" xlink:href="#linear-gradient-6"/><linearGradient id="linear-gradient-13" x1="426.84" y1="172.52" x2="595.34" y2="-66.99" gradientTransform="translate(-18.63 33.31) rotate(-4.98)" xlink:href="#linear-gradient-7"/><linearGradient id="linear-gradient-14" x1="37.34" y1="266.54" x2="99.34" y2="169.04" xlink:href="#linear-gradient-6"/><linearGradient id="linear-gradient-15" x1="216.76" y1="22.17" x2="385.26" y2="-217.33" xlink:href="#linear-gradient-7"/></defs><title>404-error-side-picture</title><g id="BACKGROUND"><path class="cls-2" d="M438.31,170.47c-6.11-13.7-17.77-26.17-22.52-40.89-8.08-25,4.84-52.56-.38-78.39-4.56-22.61-24.3-40.93-45.86-42.58-17.93-1.36-34.93,7.57-52.72,9.87-29.84,3.88-59-10.94-88.78-16.27a142.73,142.73,0,0,0-79.83,8.73c-16.34,6.82-33.06,19.12-35.45,37.74-1.83,14.26,5.35,29.11,1.84,43-2.63,10.43-10.93,18.18-20,23s-19,7.28-28.48,11c-20.29,8.09-38.81,23.08-47.94,44S11,217.89,25.91,235.07c7.12,8.21,16.53,13.69,24.43,21,10.27,9.54,10,25,16.11,37.06,6.25,12.42,17.49,20.59,28.8,27.15,14.15,8.21,30.55,12.07,46.46,10.06C164.45,327.5,185,314,207.83,311.73c23.12-2.3,45.8,7.12,68.39,13.37,25,6.91,51.4,10,76.33,3.7s48.22-23,58.95-47.8c8-18.48,8.67-40,17-58.3,5-11,12.76-21.09,13.63-33.33C442.58,182.64,441,176.44,438.31,170.47Z"/></g><g id="OBJECTS"><path class="cls-3" d="M359.39,86.32c-11.58-4.4-1.14-9.56,6.13-11.61,5.87-1.66,20.6-4.38,14.62-14.41-6.26-10.51-12.25,2.47-17.23,3.94-11.13,3.27.45-10.69,3.21-14.41,3.79-5.1,11.76-15.52,1.92-17.25-8-1.41-16.19,9.68-19.49,15.2-2.36,3.94-8.14,22.39-14.16,18.3-4.56-3.1.15-21.57-10.73-8.37-4.42,5.37-3.71,14-5.7,20.14-2.92,9-4.16,12.72-12.14,10.41-4.14-1.2-4.27-6.39-9.37-2.88-2.63,1.8-3.41,10.11-3.39,13,.2,26.51,10.8,44.26,15.8,46.55,6.77,3.1,19.35-1.38,25.14-4.7,2.88-1.66,8.13-4.39,7.76-8.58-.42-4.7-7.68-4-7.95-6.79-.76-7.83,13.65-.35,17.64-1.46,5.17-1.45,13.73-10.68,8.3-15.56-.55-.51-23.07-2.14-10.19-9.31,7.13-4,14.78,7,21.66-.77C381.13,86.5,363.73,88,359.39,86.32Z"/><path class="cls-4" d="M357.47,90.49c-5-2.1-10.12-4-15.54-4.46,3.81-4.76,7.81-9.47,10.71-14.76.81-1.49-1.62-2.52-2.43-1-.36.65-.75,1.27-1.13,1.9-.42-1.61.08-4,.23-5.32a34.07,34.07,0,0,1,2.95-9.37,1.32,1.32,0,0,0-2.43-1,36.43,36.43,0,0,0-3.34,12.08c-.14,2.12-.27,4.43,1,6.19-4.1,6.08-9.2,11.68-13.48,17.58a26.06,26.06,0,0,1-3.78-9.34c-.67-3.73-.22-7.53-.6-11.29A1.33,1.33,0,0,0,327,72c.47,4.52-.06,9,1.07,13.42a30,30,0,0,0,4.3,9.19,163,163,0,0,0-13.17,22.28c-1.24,2.58-2.37,5.22-3.46,7.88A49.07,49.07,0,0,1,309.78,113a39,39,0,0,1-2-7.32c-.24-1.87-.05-3.63-.78-5.4a1.32,1.32,0,0,0-2.46,1c.91,2.17.6,5,1.17,7.32a66.83,66.83,0,0,0,2,6.64,52.27,52.27,0,0,0,6.63,12.34.81.81,0,0,0,.14.12c-1.85,4.59-3.65,9.2-5.71,13.68a1.29,1.29,0,0,0-.41.54,13.13,13.13,0,0,0-.71,1.81c-3.67,9.26-7.37,18.52-10.92,27.84-.61,1.58,1.82,2.63,2.43,1,3.54-9.28,7.22-18.51,10.88-27.75,0,0,.06-.06.08-.1,1.17-2.42,2.25-4.89,3.29-7.37,4.81,1.22,10.15-.18,14.64-2a1.32,1.32,0,0,0-1-2.45c-3.91,1.57-8.42,2.78-12.64,2,2.32-5.68,4.5-11.42,7.13-17,1-2.21,2.17-4.37,3.34-6.5a1.81,1.81,0,0,0,.27.18,38.78,38.78,0,0,0,20.66,2.62c1.68-.26,1.36-2.89-.33-2.62a36.2,36.2,0,0,1-19.29-2.43h0a200.9,200.9,0,0,1,11.95-18.21c.73-1,1.49-2,2.26-3a1.12,1.12,0,0,0,1,.7c5.25.42,10.19,2.25,15,4.28A1.32,1.32,0,0,0,357.47,90.49Z"/><path class="cls-5" d="M288.35,202.09c6.75-7.23,12.52-14.94,19.67-21.65-6.18-9.79-8.6-28.16-7-30.08,3.54-4.32,8,2.41,8.87,5.68,1.59,5.91.74,18.3-.3,23,.85-.75,1.72-1.5,2.61-2.22l5.88-4.79c-1.82-3.47-6.09-10.66-3.71-22.35.4-2,1.1-4.54,3.19-5.3,2.91-1.05,3.12,2.2,3.2,4.26.13,3.53-.24,15.65-.1,21.28q5.89-4.8,11.8-9.57c-2.21-7.26-4.86-16.07-1.61-23.45,2.12-4.82,5.92-.8,6.77,2.39,1.51,5.71.39,12.41-1.64,18.24,1.86-1.49,3.73-3,5.6-4.46l1-.78c-1.4-3.47-3.11-6.67-3.25-10.54a14.78,14.78,0,0,1,4-10.11c1.08-1.25,2.22-2.92,4-3.13,2.54-.29,1.47,2.42,1,4.07a100.43,100.43,0,0,0-2.47,10.77c-.35,2-.73,3.83-1.24,5.72a14.35,14.35,0,0,0-.28,1.85c2.69-2.05,5.42-4.07,8.2-6-.17-6.41-.34-14.16,4-19.43,2.81-3.45,5,.68,5,3.47-.05,4.33-1.86,8.82-4.28,12.73q1.85-1.23,3.7-2.45C363,132,365.51,123,372.22,118.72c4.27-2.74,5.19,2.61,4.18,5.66a24.77,24.77,0,0,1-5,8.35l1.77-1c1.38-.79,2.79-1.53,4.21-2.22.95-6.35,2.13-14.06,7.3-18.52,3.38-2.91,4.82,1.54,4.3,4.28-.82,4.36-3.49,8.55-6.65,12,2.22-.91,4.47-1.75,6.73-2.55,1.57-5,3.5-11,8.22-14,3.1-1.93,3.7,1.85,2.94,4a20.51,20.51,0,0,1-6.14,8.26c2.49-.84,5-1.66,7.48-2.53,1.44-1.88,3.11-3.74,4.59-5.33,1.75-1.88,4-3.71,6.75-3.47,3.62.31,4.33,2.87,2.3,5.7a8.4,8.4,0,0,1-3.57,2.77,7.26,7.26,0,0,1,3.59,1.61c2.39,2.23.2,4.39-2.39,4.88-2.88.56-5.85-.53-8.64-1.08-2.08-.4-4.27-.2-6.34-.39-1.65.56-3.31,1.11-4.95,1.68,4.29-.27,9,.24,12.55,2.34,2,1.16,3.93,4.45.32,5-5.8.81-11.43-3-16-5.92l0-.28a103.38,103.38,0,0,0-13.61,5.83,17.56,17.56,0,0,1,4.32.5c2.52.63,5.73,3.59,1.95,5.31-4.86,2.2-10.55,1.14-15.65-.25-4.6,2.87-9.11,5.9-13.52,9.05,4.81-1.69,10.29-2.61,15-1.42,2.71.68,6.14,3.85,2.09,5.69-6.51,3-14.42.44-20.73-1.39l-.09-.17c-2,1.52-4.07,3.05-6.07,4.62l-2.87,2.3c6.59-2.47,14-4,20.35-2.64,3.61.76,8.08,4.77,2.52,7.4-8.89,4.21-19.38,1.33-27.8-.78l-8.2,6.75c6.53-.23,20.05-1.51,24.44-1.57,2.06,0,6.88.47,5.72,3.78-.64,1.83-4.36,3.38-6.15,3.81-4,.95-18.65-.41-28.24-2.57q-2.93,2.37-5.89,4.7c-.74.57-1.45,1.15-2.16,1.74,9.64-1.19,28.61-2.24,33.17-.74,2.33.77,5.93,2.61,5.35,5.57s-5.29,2.88-7.7,3.38C340.42,188,322.85,185,319.69,184c-2.45-.79-4.83-2.14-7.19-3q-2.36,2.12-4.54,4.34c7.59,1.57,24.93,3.93,30.35,5.13,2.47.55,8.1,2.49,5.79,6.13-1.28,2-6.17,2.83-8.43,2.83-4.79,0-20.51-5.16-31.39-10.21-4.5,4.89-8.76,10-13.44,15C289.42,205.68,286.93,203.62,288.35,202.09Z"/><path class="cls-6" d="M95.86,77.74c11.58-4.4,1.14-9.55-6.13-11.61-5.87-1.66-20.6-4.37-14.62-14.41,6.26-10.51,12.25,2.47,17.23,3.94,11.13,3.27-.45-10.68-3.22-14.41C85.34,36.16,77.37,25.74,87.21,24c8-1.4,16.19,9.68,19.49,15.21,2.36,3.93,8.14,22.38,14.16,18.29,4.56-3.1-.16-21.57,10.73-8.36,4.42,5.36,3.71,14,5.7,20.13,2.92,9,4.15,12.72,12.14,10.41,4.13-1.2,4.27-6.39,9.37-2.88,2.63,1.8,3.41,10.11,3.39,13-.21,26.51-10.8,44.26-15.8,46.55-6.77,3.1-19.35-1.37-25.14-4.7-2.88-1.65-8.13-4.38-7.76-8.58.42-4.7,7.68-4,8-6.78.76-7.84-13.65-.35-17.64-1.47-5.17-1.45-13.73-10.68-8.3-15.56.55-.5,23.07-2.13,10.19-9.3-7.13-4-14.78,7-21.66-.78C74.12,77.93,91.52,79.4,95.86,77.74Z"/><path class="cls-4" d="M97.78,81.91c5-2.1,10.12-4,15.54-4.45-3.81-4.76-7.81-9.48-10.71-14.77-.81-1.49,1.62-2.52,2.43-1,.36.65.75,1.27,1.13,1.91.42-1.62-.08-4-.23-5.32a33.82,33.82,0,0,0-3-9.38,1.33,1.33,0,0,1,2.44-1,36.72,36.72,0,0,1,3.33,12.08c.15,2.13.28,4.43-1,6.19,4.1,6.08,9.2,11.68,13.47,17.58a25.82,25.82,0,0,0,3.79-9.34c.67-3.73.22-7.52.6-11.28a1.33,1.33,0,0,1,2.63.33c-.47,4.52.06,8.95-1.07,13.41a30.12,30.12,0,0,1-4.3,9.2,163.5,163.5,0,0,1,13.17,22.27c1.24,2.59,2.37,5.23,3.46,7.88a48.89,48.89,0,0,0,5.93-11.77,38.84,38.84,0,0,0,2-7.32c.24-1.86,0-3.63.78-5.4a1.32,1.32,0,0,1,2.45,1c-.9,2.17-.59,5-1.16,7.33s-1.24,4.46-2,6.64a52.21,52.21,0,0,1-6.63,12.33c0,.06-.1.08-.14.13,1.85,4.58,3.65,9.19,5.71,13.68a1.17,1.17,0,0,1,.4.53,12,12,0,0,1,.72,1.81c3.67,9.27,7.37,18.53,10.92,27.84.61,1.59-1.82,2.63-2.43,1-3.54-9.28-7.22-18.51-10.88-27.74a.76.76,0,0,1-.08-.11c-1.17-2.42-2.25-4.89-3.29-7.37-4.81,1.22-10.15-.18-14.64-2a1.32,1.32,0,0,1,1-2.46c3.9,1.57,8.42,2.79,12.63,2-2.31-5.68-4.49-11.43-7.12-17-1.05-2.2-2.17-4.36-3.34-6.5a1.27,1.27,0,0,1-.27.18,38.88,38.88,0,0,1-20.66,2.63c-1.68-.27-1.36-2.89.33-2.63A36,36,0,0,0,129,100.55h0a198.89,198.89,0,0,0-12-18.21c-.72-1-1.48-2-2.25-3a1.09,1.09,0,0,1-1,.7c-5.25.42-10.19,2.25-15,4.29A1.33,1.33,0,0,1,97.78,81.91Z"/><path class="cls-7" d="M166.9,193.52c-6.76-7.24-12.52-15-19.67-21.66,6.18-9.79,8.6-28.16,7-30.08-3.53-4.31-8,2.41-8.86,5.68-1.59,5.92-.74,18.3.3,23-.85-.76-1.72-1.51-2.61-2.23l-5.88-4.79c1.82-3.47,6.09-10.65,3.71-22.35-.4-2-1.11-4.54-3.2-5.3-2.9-1.05-3.11,2.2-3.19,4.26-.13,3.53.24,15.65.1,21.29q-5.9-4.8-11.8-9.58c2.21-7.26,4.86-16.07,1.61-23.44-2.13-4.83-5.92-.81-6.77,2.38-1.51,5.71-.39,12.41,1.64,18.24l-5.6-4.46-1-.78c1.4-3.47,3.11-6.66,3.25-10.54A14.78,14.78,0,0,0,112,123c-1.08-1.25-2.22-2.91-4-3.12-2.54-.3-1.47,2.41-1,4.07a99.71,99.71,0,0,1,2.47,10.76c.35,2,.73,3.83,1.23,5.72a12.83,12.83,0,0,1,.29,1.86q-4-3.09-8.2-6c.17-6.41.34-14.15-4-19.42-2.82-3.46-5,.67-5,3.46,0,4.33,1.86,8.82,4.28,12.74q-1.85-1.24-3.7-2.46c-2.11-7.21-4.61-16.17-11.32-20.47-4.27-2.73-5.19,2.62-4.18,5.67a24.87,24.87,0,0,0,5,8.34l-1.76-1c-1.39-.8-2.79-1.53-4.21-2.22-1-6.36-2.13-14.07-7.31-18.53-3.37-2.91-4.81,1.54-4.29,4.29.81,4.35,3.49,8.54,6.65,12-2.22-.92-4.47-1.76-6.73-2.56-1.57-5-3.5-11-8.22-14-3.1-1.93-3.7,1.85-2.94,4a20.54,20.54,0,0,0,6.14,8.25c-2.5-.83-5-1.66-7.48-2.53-1.45-1.87-3.11-3.74-4.59-5.33-1.75-1.88-4-3.7-6.75-3.47-3.62.31-4.33,2.88-2.3,5.71a8.46,8.46,0,0,0,3.57,2.76,7.33,7.33,0,0,0-3.6,1.61c-2.38,2.23-.2,4.39,2.39,4.89,2.89.55,5.86-.54,8.65-1.08a61.13,61.13,0,0,1,6.34-.4l4.95,1.68c-4.29-.27-9,.24-12.56,2.34-2,1.16-3.93,4.45-.31,5,5.8.81,11.43-3,16-5.91l0-.28a101.32,101.32,0,0,1,13.6,5.82,17.54,17.54,0,0,0-4.31.5c-2.53.63-5.73,3.59-2,5.31,4.86,2.21,10.55,1.14,15.65-.25,4.59,2.88,9.11,5.9,13.52,9.05-4.81-1.68-10.29-2.61-15-1.42-2.7.68-6.13,3.85-2.08,5.69,6.51,3,14.41.45,20.73-1.39l.08-.17q3.07,2.28,6.08,4.62c1,.76,1.91,1.54,2.87,2.31-6.59-2.48-14-4-20.35-2.65-3.61.76-8.08,4.77-2.52,7.4,8.89,4.21,19.38,1.33,27.79-.77l8.21,6.74c-6.53-.23-20-1.51-24.44-1.56-2.06,0-6.88.46-5.72,3.77.64,1.83,4.36,3.39,6.15,3.81,4,1,18.65-.41,28.24-2.56,1.95,1.57,3.91,3.15,5.89,4.69.74.57,1.45,1.16,2.16,1.74-9.65-1.18-28.61-2.24-33.17-.74-2.33.77-5.93,2.61-5.35,5.57s5.29,2.89,7.7,3.38c5.54,1.14,23.11-1.84,26.27-2.86,2.45-.79,4.83-2.14,7.19-3q2.35,2.11,4.54,4.35c-7.59,1.56-24.93,3.92-30.35,5.13-2.47.55-8.1,2.49-5.79,6.12,1.28,2,6.17,2.83,8.43,2.84,4.79,0,20.51-5.17,31.39-10.21,4.5,4.89,8.75,10,13.44,15C165.83,197.1,168.32,195,166.9,193.52Z"/><path class="cls-8" d="M320.53,193.47c0,18.33-10.46,34.93-27.41,47.06-1.4,1-2.84,2-4.34,2.93-.88.54-1.76,1.08-2.66,1.59-.28.19-.57.35-.86.52-1.66,1-3.35,1.86-5.1,2.72-1.31.66-2.66,1.28-4,1.88-2,.9-4.05,1.75-6.14,2.53-3.22,1.23-6.57,2.33-10,3.27-.35.11-.71.2-1.05.29a119.49,119.49,0,0,1-11.85,2.55c-3.1.53-6.27.94-9.48,1.25-2.08.19-4.17.35-6.28.42l-.88,0c-1.86.1-3.74.13-5.63.13h-1.12c-52.34-.43-94.58-30.34-94.58-67.19,0-37.09,42.85-67.15,95.7-67.15S320.53,156.38,320.53,193.47Z"/><path class="cls-9" d="M287.93,193.48c0,12.08-6.9,23-18.07,31-.93.66-1.88,1.31-2.87,1.93-.58.36-1.15.71-1.75,1.05l-.57.34c-1.09.63-2.21,1.23-3.36,1.79-.87.44-1.75.85-2.65,1.24-1.32.6-2.67,1.15-4.05,1.67a67.23,67.23,0,0,1-6.61,2.15c-.23.08-.46.14-.69.2a77.13,77.13,0,0,1-7.81,1.68c-2.05.35-4.14.62-6.25.83-1.37.12-2.76.22-4.15.27l-.57,0c-1.23.07-2.47.09-3.72.09h-.74c-34.5-.28-62.36-20-62.36-44.3,0-24.46,28.26-44.28,63.1-44.28S287.93,169,287.93,193.48Z"/><polygon class="cls-10" points="241.14 180.9 268.33 200.01 272.13 199.52 245.64 180.9 241.14 180.9"/><polygon class="cls-10" points="238.66 203.72 265.85 222.83 269.65 222.34 243.15 203.72 238.66 203.72"/><path class="cls-11" d="M269.07,182l-2.82,13.24-.52,2.42-23.9-16.8,3.38-15-4.93-4.13-16.21,76.05h.74c1.25,0,2.49,0,3.72-.09l.57,0,1.68-7.5,8.72,6.4a77.13,77.13,0,0,0,7.81-1.68c.23-.06.46-.12.69-.2l-15.75-11.07,3.3-14.67,24,17.64-.92,4.28c.9-.39,1.78-.8,2.65-1.24,1.15-.56,2.84-1.5,3.93-2.13L274,186.17Zm-7.95,37.3-24.1-17,3.34-15,23.84,17.51Z"/><path class="cls-10" d="M278,186.17l-8.09,38.34c-.93.66-1.88,1.31-2.87,1.93-.58.36-1.15.71-1.75,1.05L274,186.17Z"/><polygon class="cls-10" points="274 186.16 269.07 182.04 273.02 182.04 277.95 186.16 274 186.16"/><polygon class="cls-10" points="245.2 165.85 249.16 165.85 244.23 161.73 240.28 161.73 245.2 165.85"/><polygon class="cls-10" points="245.2 165.85 249.16 165.85 245.78 180.9 241.83 180.9 245.2 165.85"/><g class="cls-12"><path class="cls-13" d="M244.79,128.75c-1.63-5.32-5-9.6-7.61-14.42-.67-1.25-1.49-2.43-2.1-3.72-.24-.5-1.51-3-2.82-5.53a7.19,7.19,0,0,0-9.18-3.64h0a8.1,8.1,0,0,0-4.49,5c-1.22,3.75-3.67,8.7-5,10.29-2.54,2.94-5.64,5.76-7.53,9.27-1.09,2-1.1,4.31-1.72,6.49.63-1.89,2.82-3.38,4.31-4.47.22,1.65-.64,4.11-.81,5.8a18.17,18.17,0,0,0,1,8.05c2.06,5.88,6.26,9.9,9.64,14.88.8,1.17,1.33,2.45,2.22,3.56.3.39.86,1.4,1.31,1.39.64,0,2.25-2.12,2.69-2.54,4.24-4.1,9.64-6.55,12.74-11.87,2.09-3.57,2.68-7.57,4.07-11.37.74,2.14.43,4.56,1,6.73C244.42,138.12,246.3,133.63,244.79,128.75Z"/><path class="cls-14" d="M236.31,282.62s-6.67,2.92-4.06,6.11c3.55,2.13,8,4.55,9.66,7.22a5.68,5.68,0,0,0,5.72,2.5l.4-.06a1.59,1.59,0,0,0,2.53-1.18c.05-2-1.34-5.37-7.8-10.44Z"/><path class="cls-15" d="M253.47,208.93h0c-.84-1.19-1.64-2.22-2.38-3.1-1.7-2.62-2.57-5.26-2.11-7.93l-23.35-.14-11.12-1.56c.14.5.27,1,.41,1.5h0s-.87,5.92,4.48,19c7,35.58,6.91,72.27,1.45,111.06l7.66.24c9.71-42,10.23-79.57,7-114.93l.44-.1c21.33,22.5,13.09,45.07.15,70.31l6.07,5C274,249.16,262.12,221.15,253.47,208.93Z"/><path class="cls-14" d="M220.87,327s-4.76,4.44-.88,5.84l19,1.63a1.59,1.59,0,0,0,1.57-2.31c-1-1.73-3.92-3.91-12.07-4.93Z"/><path class="cls-16" d="M240.58,136.84c-1.5,1.1-1.55,3.07-1.3,4.59a10.62,10.62,0,0,0,1,3c1.57,3.16,7.4,14.57,12,19.1a6.18,6.18,0,0,0,7.52.92c5.37-3.21,14.35-8.8,16.77-11.77-.33-.43-.21-.3-.65-.85s-1.36-1.84-2-2.49c-3.39,2.72-16.53,5.12-16.53,5.12s-7.71-11.54-9.33-16.11C247.12,135.79,244.39,134.05,240.58,136.84Z"/><path class="cls-17" d="M276.55,152.66c4.43-2.37,8-5.27,9.05-10.49.18-.92-1.54-2-2.92-1a13.79,13.79,0,0,0-4.15,5.07c-.19-.68.14-1.89-.09-2.5s-.37-1.49-1.49-.52-2.54,4.26-3,6.08C274.8,150.46,275.71,151.5,276.55,152.66Z"/><path class="cls-18" d="M225.78,136.11c1.38,1.24,1.24,3.2.84,4.7a10.64,10.64,0,0,1-1.29,2.88c-1.88,3-8.8,13.78-13.79,17.83a6.17,6.17,0,0,1-7.57.18c-5-3.72-13.43-10.17-15.54-13.36.37-.4.24-.28.73-.78s1.53-1.7,2.19-2.29c3.11,3,16,6.72,16,6.72s8.81-10.73,10.87-15.12C219.38,134.42,222.26,133,225.78,136.11Z"/><path class="cls-17" d="M188.43,148.32c-4.17-2.79-7.48-6-8-11.33-.09-.93,1.72-1.8,3-.73a13.78,13.78,0,0,1,3.63,5.46c.26-.66,0-1.9.33-2.48s.52-1.45,1.54-.37,2.11,4.49,2.35,6.34C190.39,146.31,189.38,147.25,188.43,148.32Z"/><path class="cls-19" d="M249.73,200.06a23.88,23.88,0,0,1-9.25,3.71c-9,1.65-19.36-.89-28.63-4.52a84.76,84.76,0,0,1,4-11.06c2.73-6,6-11.9,5.65-18.69a29.48,29.48,0,0,0-2.34-9.35,13.07,13.07,0,0,1-.9-7.25c.3-1.87.87-3.69,1.25-5.54.58-3.13,4.43-12.56,4.43-12.56l2.11,1,2.25,1.05c.44-.05,1.42-.36,1.64-.79a.41.41,0,0,0,.05-.19l-.07-1.32,7,.09.11,1.1c.09.82,0,1.45.83,1.5a6.88,6.88,0,0,0,2.32-.45c1.31-.46,2.51-1.08,2.67-1.07s4.93,17.33,4.12,21.73c-.93,5.11-3.55,8.89-4.08,14.23a16.4,16.4,0,0,0,.68,5.83C246.81,187.23,249.73,200.06,249.73,200.06Z"/><path class="cls-17" d="M233.25,149.13s-7.72.24-7.2-13.32l2.25,1.05c.44-.05,1.42-.36,1.64-.79a.41.41,0,0,0,.05-.19l-.07-1.32,7,.09.11,1.1c.09.82,0,1.45.83,1.5a6.88,6.88,0,0,0,2.32-.45C241,142.81,238.14,149,233.25,149.13Z"/><path class="cls-20" d="M230,135.88c3.13.76,5.32.18,6.93-1.24l-.38-5.3-7,1.62Z"/><path class="cls-17" d="M244.94,116.59a2.63,2.63,0,0,0-1.54.43,20.59,20.59,0,0,0-4.39-8.84,7.06,7.06,0,0,0-2.94-2.36,5.16,5.16,0,0,0-1.77-.54c-.41,0-.81,0-1.21,0s-.8,0-1.21,0a5.21,5.21,0,0,0-1.78.51,7.1,7.1,0,0,0-3,2.32,20.58,20.58,0,0,0-4.49,8.78,2.69,2.69,0,0,0-1.54-.45c-1.58.12-2.11,2.61-1.69,4.5.54,2.39,2.36,3.15,4.05,3.64a17.29,17.29,0,0,0,3.11,4.44,9.62,9.62,0,0,0,5,3.19l.17,0,.34.08a2,2,0,0,0,.24,0l.19,0,.46,0,.45,0h.2l.23,0a3.4,3.4,0,0,0,.34-.07l.17,0a9.6,9.6,0,0,0,5-3.12,17.16,17.16,0,0,0,3.16-4.41c1.7-.46,3.53-1.2,4.09-3.58C247,119.22,246.53,116.73,244.94,116.59Z"/><path class="cls-21" d="M228.34,120.34a1,1,0,1,0,.91-1A1,1,0,0,0,228.34,120.34Z"/><path class="cls-21" d="M236.19,120.39a1,1,0,0,0,1,.91,1,1,0,1,0-1-.91Z"/><path class="cls-21" d="M227.38,118.52h0a.29.29,0,0,1-.15-.38,2.37,2.37,0,0,1,3.05-1.36.28.28,0,1,1-.2.53,1.81,1.81,0,0,0-2.32,1.06A.29.29,0,0,1,227.38,118.52Z"/><path class="cls-21" d="M235.69,116.2l0,0a.28.28,0,0,1,.13-.38,2.37,2.37,0,0,1,3.23.87.28.28,0,0,1-.1.38.29.29,0,0,1-.4-.1,1.81,1.81,0,0,0-2.47-.64A.28.28,0,0,1,235.69,116.2Z"/><path class="cls-21" d="M229.86,125.65s0,0,0,0a.34.34,0,0,1,.15-.46,2.91,2.91,0,0,1,4,1,.35.35,0,0,1-.61.35,2.22,2.22,0,0,0-3-.78A.37.37,0,0,1,229.86,125.65Z"/><path class="cls-21" d="M234,124.33a.28.28,0,0,1,0-.55s.54,0,.68-.29c.06-.13.12-.53-.64-1.49a.26.26,0,0,1,0-.38.27.27,0,0,1,.39,0c.72.9,1,1.57.71,2.07a1.37,1.37,0,0,1-1.17.6Z"/><path class="cls-13" d="M244.27,110.64a10.4,10.4,0,0,0-6.69-7.39,13.88,13.88,0,0,0-10.8.86c-3.89,2.23-6.75,7.81-4.75,12.29.64,1.43,1.11,3.54,2.25,4.66.54-1.64.23-3.43.91-5a20.92,20.92,0,0,0,3.55-1,14.93,14.93,0,0,0,7.5-6c-.65,1.4.36,4,1.33,5.07s2.14,1.23,3,2.19a4.34,4.34,0,0,1,1,2.9,8.07,8.07,0,0,1-.32,2.6c.08-.28.65-.71.84-1a9.33,9.33,0,0,0,.75-1.3,14.15,14.15,0,0,0,1-2.9C244.19,114.9,244.67,112.4,244.27,110.64Z"/></g><text class="cls-22" transform="translate(172.72 86.25)">OOPS!</text><text class="cls-23" transform="translate(134.31 285.57)">We Can´t Find The Page :(</text><path class="cls-24" d="M421.25,226.24l19.34-60.57-46-3.9-72.83,56.89L314.87,236l66.65,8.37-4.67,14.76L375,265l33.69,3.21,6.65-19.48,15.89.82,7.38-21.3L427.32,227Zm-28.68-18.07-4.64,13.94-11-1.29-17.89-2.12,41.06-33.25Z"/><path class="cls-25" d="M314.87,236l1.35,15.5,60.63,7.63,4.67-14.76Zm44.19-17.26L377,220.82l15.62-12.65,7.55-22.72Zm72.13,30.85-15.89-.82-6.65,19.48L375,265l1.36,15.5L410,283.71l6.65-19.47,15.89.81,7.38-21.3-1.35-15.5Zm-9.94-23.31,6.07.71,14.62-45.78-1.35-15.5Z"/><path class="cls-26" d="M105.46,217.91l15.11-61.75-46.21-.71L5.63,217.22,0,235l67.07,3.76-3.64,15-1.48,6,33.83.87,5.29-19.88,15.91-.28,5.89-21.76-11.3-.53Zm-29.86-16L71.93,216.1l-11-.54-18-.88,38.67-36Z"/><path class="cls-27" d="M0,235l2.42,15.37,61,3.43,3.64-15Zm42.9-20.27,18,.88L75.6,201.87l6-23.18ZM117,240.49l-15.91.28-5.29,19.88L62,259.78l2.42,15.37L98.2,276l5.29-19.89,15.91-.28,5.89-21.76-2.42-15.37Zm-11.52-22.58,6.11.29L123,171.53l-2.42-15.37Z"/></g></svg>